HIERARCHY
ROOT Hips
{
	OFFSET 0.000000 0.000000 0.000000
	CHANNELS 6 Xposition Yposition Zposition Zrotation Yrotation Xrotation 
	JOINT LHipJoint
	{
		OFFSET 0.000000 0.000000 0.000000
		CHANNELS 3 Zrotation Yrotation Xrotation
		JOINT LeftUpLeg
		{
			OFFSET 1.363060 -1.794630 0.839290
			CHANNELS 3 Zrotation Yrotation Xrotation
			JOINT LeftLeg
			{
				OFFSET 2.448110 -6.726130 0.000000
				CHANNELS 3 Zrotation Yrotation Xrotation
				JOINT LeftFoot
				{
					OFFSET 2.562200 -7.039590 0.000000
					CHANNELS 3 Zrotation Yrotation Xrotation
					JOINT LeftToeBase
					{
						OFFSET 0.157640 -0.433110 2.322550
						CHANNELS 3 Zrotation Yrotation Xrotation
						End Site
						{
							OFFSET 0.000000 0.000000 0.000000
						}
					}
				}
			}
		}
	}
	JOINT RHipJoint
	{
		OFFSET 0.000000 0.000000 0.000000
		CHANNELS 3 Zrotation Yrotation Xrotation
		JOINT RightUpLeg
		{
			OFFSET -1.305520 -1.794630 0.839290
			CHANNELS 3 Zrotation Yrotation Xrotation
			JOINT RightLeg
			{
				OFFSET -2.542530 -6.985550 0.000000
				CHANNELS 3 Zrotation Yrotation Xrotation
				JOINT RightFoot
				{
					OFFSET -2.568260 -7.056230 0.000000
					CHANNELS 3 Zrotation Yrotation Xrotation
					JOINT RightToeBase
					{
						OFFSET -0.164730 -0.452590 2.363150
						CHANNELS 3 Zrotation Yrotation Xrotation
						End Site
						{
							OFFSET 0.000000 0.000000 0.000000
						}
					}
				}
			}
		}
	}
	JOINT LowerBack
	{
		OFFSET 0.000000 0.000000 0.000000
		CHANNELS 3 Zrotation Yrotation Xrotation
		JOINT Spine
		{
			OFFSET 0.028270 2.035590 -0.193380
			CHANNELS 3 Zrotation Yrotation Xrotation
			JOINT Spine1
			{
				OFFSET 0.056720 2.048850 -0.042750
				CHANNELS 3 Zrotation Yrotation Xrotation
				JOINT Neck
				{
					OFFSET 0.000000 0.000000 0.000000
					CHANNELS 3 Zrotation Yrotation Xrotation
					JOINT Neck1
					{
						OFFSET -0.054170 1.746240 0.172020
						CHANNELS 3 Zrotation Yrotation Xrotation
						JOINT Head
						{
							OFFSET 0.104070 1.761360 -0.123970
							CHANNELS 3 Zrotation Yrotation Xrotation
							End Site
							{
								OFFSET 0.000000 0.000000 0.000000
							}
						}
					}
				}
				JOINT LeftShoulder
				{
					OFFSET 0.000000 0.000000 0.000000
					CHANNELS 3 Zrotation Yrotation Xrotation
					JOINT LeftArm
					{
						OFFSET 3.362410 1.200890 -0.311210
						CHANNELS 3 Zrotation Yrotation Xrotation
						JOINT LeftForeArm
						{
							OFFSET 4.983000 -0.000000 -0.000000
							CHANNELS 3 Zrotation Yrotation Xrotation
							JOINT LeftHand
							{
								OFFSET 3.483560 -0.000000 -0.000000
								CHANNELS 3 Zrotation Yrotation Xrotation
								JOINT LeftFingerBase
								{
									OFFSET 0.000000 0.000000 0.000000
									CHANNELS 3 Zrotation Yrotation Xrotation
									JOINT LeftHandIndex1
									{
										OFFSET 0.715260 -0.000000 -0.000000
										CHANNELS 3 Zrotation Yrotation Xrotation
										End Site
										{
											OFFSET 0.000000 0.000000 0.000000
										}
									}
								}
								JOINT LThumb
								{
									OFFSET 0.000000 0.000000 0.000000
									CHANNELS 3 Zrotation Yrotation Xrotation
									End Site
									{
										OFFSET 0.000000 0.000000 0.000000
									}
								}
							}
						}
					}
				}
				JOINT RightShoulder
				{
					OFFSET 0.000000 0.000000 0.000000
					CHANNELS 3 Zrotation Yrotation Xrotation
					JOINT RightArm
					{
						OFFSET -3.136600 1.374050 -0.404650
						CHANNELS 3 Zrotation Yrotation Xrotation
						JOINT RightForeArm
						{
							OFFSET -5.241900 -0.000000 -0.000000
							CHANNELS 3 Zrotation Yrotation Xrotation
							JOINT RightHand
							{
								OFFSET -3.444170 -0.000000 -0.000000
								CHANNELS 3 Zrotation Yrotation Xrotation
								JOINT RightFingerBase
								{
									OFFSET 0.000000 0.000000 0.000000
									CHANNELS 3 Zrotation Yrotation Xrotation
									JOINT RightHandIndex1
									{
										OFFSET -0.622530 -0.000000 -0.000000
										CHANNELS 3 Zrotation Yrotation Xrotation
										End Site
										{
											OFFSET 0.000000 0.000000 0.000000
										}
									}
								}
								JOINT RThumb
								{
									OFFSET 0.000000 0.000000 0.000000
									CHANNELS 3 Zrotation Yrotation Xrotation
									End Site
									{
										OFFSET 0.000000 0.000000 0.000000
									}
								}
							}
						}
					}
				}
			}
		}
	}
}
MOTION
Frames: 10
Frame Time: 0.008333
3.771633 17.177371 1.251334 13.856969 -34.017542 -2.116440 -8.011881 0.848760 8.291806 -14.193015 -27.298965 -10.142985 -4.063519 -1.046277 -1.629423 -1.086818 -7.304253 11.251414 -1.556700 0.000000 -43.751200 12.044657 -0.947082 -4.652473 -10.107540 -35.913934 4.948545 0.352911 0.563506 -0.357687 -4.492982 -26.489286 1.440691 -5.804200 0.000000 -58.253000 -3.222478 1.728472 -5.046679 -0.146611 2.143443 -4.647183 0.804288 2.084775 -4.905858 -8.209410 9.163339 3.023812 -1.520063 -0.264163 2.951781 0.000000 0.000000 0.000000 -1.650313 1.419991 -10.079449 -109.844415 -50.913767 51.415471 178.541074 -71.299208 179.840910 10.340605 -4.868587 -0.528590 -0.070939 0.931708 -0.000000 0.000000 0.000000 0.000000 0.000000 0.000000 0.000000 -9.395386 13.534959 5.710784 5.495588 20.010533 -62.208133 -1.959167 0.232221 -0.121539 -21.710485 5.517586 -1.169333 0.463950 -0.448964 0.000000 0.000000 0.000000 0.000000 0.000000 0.000000 0.000000 
3.768338 17.186099 1.235118 14.020841 -34.506065 -2.234600 -8.077582 0.806187 8.182597 -14.203023 -26.867193 -10.282605 -4.060162 -1.045829 -1.416975 -1.086229 -7.227842 11.255424 -1.528700 -0.000000 -43.608501 12.032856 -0.999989 -4.570903 -10.036727 -35.627531 4.752688 0.366857 0.544065 -0.485083 -4.449681 -26.181742 1.471745 -5.739000 0.000000 -58.272299 -3.109627 2.016096 -4.990814 -0.064814 2.429091 -4.639064 1.149272 2.374382 -4.941439 -8.905678 10.233882 2.923635 -1.353641 -0.253398 2.929428 0.000000 0.000000 0.000000 -2.140726 1.743903 -10.075194 -109.842550 -50.646853 51.276618 178.464163 -70.950718 179.842424 10.256027 -4.928538 -0.528643 -0.060622 0.924562 -0.000000 0.000000 0.000000 0.000000 0.000000 0.000000 0.000000 -10.558341 14.719224 5.814973 2.761212 19.115814 -64.005295 -1.973212 -3.049319 -0.115570 -22.669325 3.588940 -0.814346 0.518082 -0.382449 0.000000 0.000000 0.000000 0.000000 0.000000 0.000000 0.000000 
3.761305 17.195443 1.218431 14.153406 -34.982960 -2.323752 -8.122674 0.776907 8.086807 -14.181467 -26.449558 -10.424231 -4.057961 -1.048581 -1.244180 -1.088279 -7.175338 11.288451 -1.510500 -0.000000 -43.478700 12.041289 -1.058139 -4.485760 -9.943287 -35.384390 4.566527 0.384900 0.533199 -0.674100 -4.400148 -25.862228 1.527749 -5.682000 0.000001 -58.287500 -3.087311 2.282933 -4.947559 -0.020424 2.697549 -4.633533 1.392835 2.643458 -4.989279 -9.386014 10.825505 2.818345 -1.184318 -0.242629 2.907684 0.000000 0.000000 0.000000 -2.414536 1.949656 -10.073348 -109.933086 -50.353948 51.221658 178.397932 -70.678870 179.843951 10.139280 -5.024021 -0.530374 -0.050124 0.920383 -0.000000 0.000000 0.000000 0.000000 0.000000 0.000000 0.000000 -11.728734 15.494344 5.807618 1.465784 18.202405 -63.988072 -1.955152 -3.446353 -0.117677 -23.498372 0.721822 -0.220237 0.565297 -0.310740 0.000000 0.000000 0.000000 0.000000 0.000000 0.000000 0.000000 
3.750844 17.205185 1.201691 14.256956 -35.442846 -2.382693 -8.151678 0.760049 8.009622 -14.125606 -26.070470 -10.561636 -4.054837 -1.054011 -1.124826 -1.090682 -7.125936 11.348593 -1.496200 -0.000001 -43.359000 12.062213 -1.118036 -4.402537 -9.829325 -35.194276 4.397151 0.407341 0.531664 -0.925608 -4.344696 -25.535570 1.613171 -5.636101 0.000000 -58.304400 -3.125732 2.514229 -4.922189 0.003406 2.934058 -4.621202 1.584018 2.877292 -5.005102 -9.777482 10.910703 2.668237 -1.007947 -0.231003 2.875223 0.000000 0.000000 0.000000 -2.552792 2.086212 -10.090120 -110.063329 -50.068382 51.195598 178.335065 -70.431467 179.845484 10.011815 -5.138665 -0.533099 -0.039719 0.917045 -0.000000 0.000000 0.000000 0.000000 0.000000 0.000000 0.000000 -12.976773 15.806291 5.752139 0.808064 17.758920 -64.444557 -2.011304 -2.614232 -0.123721 -24.191598 -1.395435 0.247469 0.601816 -0.264025 0.000000 0.000000 0.000000 0.000000 0.000000 0.000000 0.000000 
3.737475 17.215057 1.185282 14.335277 -35.890065 -2.410269 -8.168417 0.755055 7.954408 -14.033044 -25.750343 -10.692727 -4.048419 -1.061411 -1.066874 -1.090718 -7.054142 11.428443 -1.478500 -0.000000 -43.243600 12.088713 -1.175208 -4.325971 -9.695471 -35.058761 4.245141 0.434514 0.539939 -1.233921 -4.283395 -25.202782 1.728197 -5.601100 0.000001 -58.331301 -3.197326 2.693996 -4.916666 0.021578 3.123260 -4.595567 1.769542 3.061760 -4.954462 -10.179140 10.540502 2.442744 -0.833325 -0.218458 2.822700 0.000000 0.000000 0.000000 -2.627146 2.205962 -10.140897 -110.187542 -49.814110 51.144242 178.267515 -70.162286 179.846956 9.896386 -5.258108 -0.536637 -0.029672 0.912711 -0.000000 0.000000 0.000000 0.000000 0.000000 0.000000 0.000000 -14.257258 15.654120 5.719574 -0.299162 18.220434 -66.468634 -2.159130 -2.666960 -0.125836 -24.805808 -1.350846 0.244475 0.633882 -0.262330 0.000000 0.000000 0.000000 0.000000 0.000000 0.000000 0.000000 
3.721990 17.224865 1.169525 14.390454 -36.331496 -2.405591 -8.178160 0.759550 7.921498 -13.900339 -25.501888 -10.816865 -4.036451 -1.070105 -1.069833 -1.086002 -6.935726 11.518403 -1.449500 0.000000 -43.125200 12.113777 -1.228006 -4.258244 -9.536906 -34.965668 4.108106 0.465915 0.556945 -1.589649 -4.218006 -24.870714 1.870893 -5.577900 0.000000 -58.374601 -3.274321 2.818925 -4.931199 0.040434 3.260126 -4.555871 1.953121 3.191910 -4.833141 -10.616585 9.735328 2.149933 -0.659170 -0.204993 2.751757 0.000000 0.000000 0.000000 -2.678397 2.327282 -10.218524 -110.257424 -49.619730 51.032775 178.198360 -69.849382 179.848151 9.818251 -5.363789 -0.540779 -0.021436 0.907154 -0.000000 0.000000 0.000000 0.000000 0.000000 0.000000 0.000000 -15.599610 15.072201 5.709926 -1.851367 19.497871 -70.588824 -2.422538 -3.440752 -0.123750 -25.230957 1.007532 -0.304024 0.657103 -0.315644 0.000000 0.000000 0.000000 0.000000 0.000000 0.000000 0.000000 
3.705599 17.234500 1.154534 14.419471 -36.772008 -2.369319 -8.186234 0.769820 7.907897 -13.724470 -25.329316 -10.932699 -4.017468 -1.079690 -1.123691 -1.074899 -6.750668 11.607656 -1.401800 0.000001 -42.995800 12.132129 -1.278445 -4.199093 -9.346698 -34.893814 3.983338 0.500333 0.579910 -1.979627 -4.151222 -24.548672 2.037138 -5.566700 0.000000 -58.438100 -3.337674 2.902117 -4.963286 0.048782 3.352830 -4.512288 2.062106 3.275897 -4.689320 -10.984862 8.490814 1.857859 -0.487782 -0.191765 2.680662 0.000000 0.000000 0.000000 -2.674042 2.415799 -10.287557 -110.235501 -49.504019 50.853572 178.143418 -69.514235 179.848698 9.799389 -5.437981 -0.545588 -0.017433 0.902426 -0.000000 0.000000 0.000000 0.000000 0.000000 0.000000 0.000000 -17.004085 14.117872 5.615116 -2.654817 21.162221 -75.703382 -2.778315 -2.454179 -0.127667 -25.129609 4.019937 -1.012345 0.657229 -0.408520 -0.000000 0.000000 0.000000 0.000000 0.000000 0.000000 0.000000 
3.689344 17.243620 1.140365 14.418336 -37.221939 -2.305204 -8.193173 0.785491 7.910738 -13.506897 -25.229633 -11.039385 -3.990900 -1.089929 -1.214449 -1.056195 -6.484520 11.681321 -1.329300 -0.000000 -42.852600 12.143594 -1.327528 -4.146655 -9.124739 -34.826100 3.867151 0.536866 0.606922 -2.385553 -4.083821 -24.235542 2.217299 -5.563000 0.000000 -58.528600 -3.388776 2.951283 -5.010310 0.026903 3.406407 -4.480945 2.010765 3.322487 -4.584027 -11.110502 6.951029 1.640588 -0.364019 -0.182468 2.628623 0.000000 0.000000 0.000000 -2.529068 2.429868 -10.322113 -110.114273 -49.451498 50.598536 178.113580 -69.197274 179.848275 9.847256 -5.479385 -0.551839 -0.018884 0.900939 -0.000000 0.000000 0.000000 0.000000 0.000000 0.000000 0.000000 -18.114257 12.899416 5.369807 -2.636013 23.152094 -79.049783 -3.069411 0.635737 -0.139034 -24.296652 6.163151 -1.473307 0.635647 -0.505040 -0.000000 0.000000 0.000000 0.000000 0.000000 0.000000 0.000000 
3.673838 17.251780 1.127179 14.382708 -37.700005 -2.219303 -8.193973 0.810691 7.931778 -13.251081 -25.193649 -11.139030 -3.956849 -1.100763 -1.327003 -1.029120 -6.129643 11.722911 -1.227900 0.000000 -42.697900 12.153227 -1.376192 -4.093703 -8.873348 -34.748727 3.751981 0.575023 0.637890 -2.788750 -4.014933 -23.922196 2.398035 -5.558400 -0.000000 -58.654700 -3.448061 2.963777 -5.081507 -0.032372 3.420329 -4.475157 1.788067 3.334637 -4.548221 -10.882930 5.437891 1.541747 -0.325600 -0.179960 2.607008 0.000000 0.000000 0.000000 -2.190757 2.337373 -10.310941 -109.901785 -49.425011 50.239725 178.109042 -68.928862 179.846697 9.957931 -5.497993 -0.560321 -0.025386 0.904098 -0.000000 0.000000 0.000000 0.000000 0.000000 0.000000 0.000000 -18.569333 11.656811 5.013345 -2.566569 25.230199 -79.273647 -3.205314 4.592550 -0.152325 -23.097668 7.259110 -1.646600 0.604824 -0.585790 -0.000000 0.000000 0.000000 0.000000 0.000000 0.000000 0.000000 
3.659712 17.258778 1.114946 14.306475 -38.224385 -2.117965 -8.185272 0.848679 7.971290 -12.960335 -25.207223 -11.235412 -3.915071 -1.111650 -1.444987 -0.993251 -5.685978 11.720053 -1.096800 -0.000001 -42.537800 12.164715 -1.425406 -4.033749 -8.594051 -34.648193 3.630928 0.614365 0.672505 -3.173062 -3.943990 -23.601949 2.570094 -5.547500 0.000000 -58.823199 -3.531506 2.937207 -5.183550 -0.117814 3.395214 -4.506027 1.453729 3.313070 -4.614089 -10.313046 4.318148 1.598667 -0.354342 -0.183796 2.626716 0.000000 0.000000 0.000000 -1.683526 2.122688 -10.229206 -109.591854 -49.391372 49.739272 178.122761 -68.721375 179.843814 10.125498 -5.501899 -0.571334 -0.035433 0.912300 -0.000000 0.000000 0.000000 0.000000 0.000000 0.000000 0.000000 -18.417808 10.723813 4.558562 -2.336262 26.812333 -76.289113 -3.195852 9.495694 -0.168202 -22.077910 7.018090 -1.534000 0.575175 -0.636613 0.000000 0.000000 0.000000 0.000000 0.000000 0.000000 0.000000 
